<?xml version="1.0" encoding="UTF-8"?>
<svg width="206px" height="157px" viewBox="0 0 206 157" version="1.1" xmlns="http://www.w3.org/2000/svg" xmlns:xlink="http://www.w3.org/1999/xlink">
    <!-- Generator: Sketch 54.1 (76490) - https://sketchapp.com -->
    <title>404</title>
    <desc>Created with Sketch.</desc>
    <defs>
        <linearGradient x1="45.7224904%" y1="3.76986612%" x2="50%" y2="95.1995221%" id="linearGradient-1">
            <stop stop-color="#DAE4FF" offset="0%"></stop>
            <stop stop-color="#F5F7FF" stop-opacity="0" offset="100%"></stop>
        </linearGradient>
        <linearGradient x1="71.8961008%" y1="47.1821602%" x2="13.3956222%" y2="53.153179%" id="linearGradient-2">
            <stop stop-color="#DBE8FF" offset="0%"></stop>
            <stop stop-color="#A9BCFF" offset="100%"></stop>
        </linearGradient>
        <linearGradient x1="71.8961008%" y1="46.8470476%" x2="-36.7673266%" y2="54.3349395%" id="linearGradient-3">
            <stop stop-color="#EAF2FF" offset="0%"></stop>
            <stop stop-color="#A9BCFF" offset="100%"></stop>
        </linearGradient>
        <linearGradient x1="71.8961008%" y1="38.1187447%" x2="13.3956222%" y2="63.2951932%" id="linearGradient-4">
            <stop stop-color="#DBE8FF" offset="0%"></stop>
            <stop stop-color="#C4D4FF" offset="46.0877463%"></stop>
            <stop stop-color="#A9BCFF" offset="100%"></stop>
        </linearGradient>
        <linearGradient x1="71.8961008%" y1="38.0137086%" x2="-23.4105156%" y2="66.8980114%" id="linearGradient-5">
            <stop stop-color="#DBE8FF" offset="0%"></stop>
            <stop stop-color="#A9BCFF" offset="100%"></stop>
        </linearGradient>
        <linearGradient x1="50%" y1="10.6470228%" x2="50%" y2="91.8129011%" id="linearGradient-6">
            <stop stop-color="#E6EBFF" offset="0%"></stop>
            <stop stop-color="#F0F1F5" stop-opacity="0" offset="100%"></stop>
        </linearGradient>
        <linearGradient x1="50%" y1="10.6470228%" x2="50%" y2="91.8129011%" id="linearGradient-7">
            <stop stop-color="#E6EBFF" offset="0%"></stop>
            <stop stop-color="#F0F1F5" stop-opacity="0" offset="100%"></stop>
        </linearGradient>
        <linearGradient x1="50%" y1="10.6470228%" x2="50%" y2="28.277538%" id="linearGradient-8">
            <stop stop-color="#E6EBFF" offset="0%"></stop>
            <stop stop-color="#F0F1F5" stop-opacity="0" offset="100%"></stop>
        </linearGradient>
        <path d="M4.89626098,0.0493519629 C4.15774884,0.0493519629 3.0043862,-0.0616899537 1.97639222,0.0493519629 C1.61767553,0.0880998442 0.612247222,0.32247377 0.314124975,0.530123458 C-0.0315493087,0.770894343 0.0359901209,1.54531166 0.0359901209,2.13810742 C0.0359901209,4.16278382 -0.192408863,12.5230909 0.501539487,12.5230909 C1.19548784,12.5230909 8.17421124,12.8624407 8.17421124,12.5230909 C8.17421124,12.1837411 8.73915222,4.14396323 8.73915222,2.88527188 C8.73915222,2.47929535 8.73915222,1.31228071 8.17421124,0.829923274 C7.67103244,0.400299573 6.53458324,0.0493519629 6.05489169,0.0493519629 C5.41082043,0.0493519629 5.63477311,0.0493519629 4.89626098,0.0493519629 Z" id="path-9"></path>
        <linearGradient x1="50%" y1="10.6470228%" x2="50%" y2="91.8129011%" id="linearGradient-11">
            <stop stop-color="#DCE3FF" offset="0%"></stop>
            <stop stop-color="#F0F1F5" stop-opacity="0" offset="100%"></stop>
        </linearGradient>
        <linearGradient x1="50%" y1="10.6470228%" x2="50%" y2="91.8129011%" id="linearGradient-12">
            <stop stop-color="#E6EBFF" offset="0%"></stop>
            <stop stop-color="#F0F1F5" stop-opacity="0" offset="100%"></stop>
        </linearGradient>
        <linearGradient x1="50%" y1="10.6470228%" x2="50%" y2="91.8129011%" id="linearGradient-13">
            <stop stop-color="#F0F3FF" offset="0%"></stop>
            <stop stop-color="#F0F1F5" stop-opacity="0" offset="100%"></stop>
        </linearGradient>
        <linearGradient x1="50%" y1="10.6470228%" x2="50%" y2="91.8129011%" id="linearGradient-14">
            <stop stop-color="#DCE3FF" offset="0%"></stop>
            <stop stop-color="#F0F1F5" stop-opacity="0" offset="100%"></stop>
        </linearGradient>
        <linearGradient x1="50%" y1="10.6470228%" x2="50%" y2="91.8129011%" id="linearGradient-15">
            <stop stop-color="#E6EBFF" offset="0%"></stop>
            <stop stop-color="#F0F1F5" stop-opacity="0" offset="100%"></stop>
        </linearGradient>
        <linearGradient x1="50%" y1="10.6470228%" x2="50%" y2="91.8129011%" id="linearGradient-16">
            <stop stop-color="#F0F3FF" offset="0%"></stop>
            <stop stop-color="#F0F1F5" stop-opacity="0" offset="100%"></stop>
        </linearGradient>
    </defs>
    <g id="页面1" stroke="none" stroke-width="1" fill="none" fill-rule="evenodd">
        <g id="缺省页通用版" transform="translate(-80.000000, -1473.000000)">
            <g id="404" transform="translate(69.000000, 1473.000000)">
                <g id="分组-2" transform="translate(80.999150, 87.206596) rotate(-22.000000) translate(-80.999150, -87.206596) translate(37.949150, 26.306596)">
                    <polygon id="矩形" fill="url(#linearGradient-1)" points="27.7549048 32.1754492 52.4105744 31.8095806 85.9656527 121.524284 1.18983602 121.524284"></polygon>
                    <path d="M40.5530323,35.755376 C55.4452058,35.755376 81.1060645,33.9266837 81.1060645,27.5101069 C81.1060645,21.0935301 62.9498535,14.8562694 40.5530323,14.8562694 C18.156211,14.8562694 2.84217094e-14,21.0935301 2.84217094e-14,27.5101069 C2.84217094e-14,33.9266837 25.6608587,35.755376 40.5530323,35.755376 Z" id="椭圆形" fill="url(#linearGradient-2)"></path>
                    <path d="M40.3598878,31.6726136 C53.8703134,31.6726136 77.1502676,30.0191756 77.1502676,24.2175373 C77.1502676,18.4158989 60.6786535,11.6168493 40.3598878,11.6168493 C20.0411222,11.6168493 3.56950807,18.4158989 3.56950807,24.2175373 C3.56950807,30.0191756 26.8494623,31.6726136 40.3598878,31.6726136 Z" id="椭圆形-copy" fill="url(#linearGradient-3)"></path>
                    <path d="M62.4663913,17.976086 C62.4663913,8.04816785 52.6112982,3.55271368e-14 40.4544248,3.55271368e-14 C28.2975514,3.55271368e-14 18.4424584,8.04816785 18.4424584,17.976086 C18.4424584,25.0660781 62.4663913,25.0660781 62.4663913,17.976086 Z" id="路径" fill="url(#linearGradient-4)"></path>
                    <path d="M51.162949,17.0913041 C51.162949,9.949407 44.1045716,4.15975544 35.3976217,4.15975544 C26.6906719,4.15975544 19.6322944,9.949407 19.6322944,17.0913041 C19.6322944,22.1916679 51.162949,22.1916679 51.162949,17.0913041 Z" id="路径-copy" fill="url(#linearGradient-5)"></path>
                    <ellipse id="椭圆形" fill="#F1F4FF" opacity="0.400000006" cx="36.4387282" cy="5.1996943" rx="7.88266366" ry="2.22844041"></ellipse>
                    <path d="M57.1077577,15.0845945 C57.4362006,15.0847677 58.565415,13.0115908 58.5639433,10.2208973 C58.5624716,7.43020387 57.4308711,4.97877274 57.1024282,4.9785996 C56.7739853,4.97842646 57.3730746,7.42957688 57.3745463,10.2202703 C57.376018,13.0109638 56.7793148,15.0844214 57.1077577,15.0845945 Z" id="椭圆形" fill="#FFFFFF" opacity="0.500697545" transform="translate(57.783998, 10.031597) rotate(-35.000000) translate(-57.783998, -10.031597) "></path>
                </g>
                <path d="M35.6691436,21 L20.6691436,21 L20.6691436,20.9520841 C16.7312295,20.5212049 13.6691436,17.2372368 13.6691436,13.25 C13.6691436,9.65835144 16.1537694,6.63734641 19.5250577,5.75831551 C20.4189874,2.44321537 23.4911959,0 27.1437198,0 C30.7274447,0 33.7525099,2.35204115 34.7095599,5.57192382 C35.0620799,5.52450059 35.4220241,5.5 35.7877876,5.5 C40.1405403,5.5 43.6691436,8.96979319 43.6691436,13.25 C43.6691436,17.5302068 40.1405403,21 35.7877876,21 C35.7481707,21 35.708622,20.9997126 35.6691436,20.9991397 Z" id="云" fill="url(#linearGradient-6)" opacity="0.900000036"></path>
                <path d="M201.669144,39 L189.669144,39 L189.669144,38.9124637 C186.828783,38.4298019 184.669144,36.0089816 184.669144,33.0952381 C184.669144,30.358744 186.574023,28.0570258 189.158678,27.387288 C189.844024,24.8614974 192.199384,23 194.999652,23 C197.747174,23 200.066391,24.7920313 200.800129,27.2452753 C201.070395,27.2091433 201.346352,27.1904762 201.626771,27.1904762 C204.963881,27.1904762 207.669144,29.8341281 207.669144,33.0952381 C207.669144,36.3425343 204.986751,38.9775924 201.669144,38.9998578 Z" id="云-copy" fill="url(#linearGradient-7)" opacity="0.900000036"></path>
                <ellipse id="椭圆形" fill="url(#linearGradient-8)" opacity="0.550000012" cx="113.884572" cy="195.205981" rx="113.884572" ry="89.4373411"></ellipse>
                <text font-family="PingFangSC-Medium, PingFang SC" font-size="26.1" font-weight="400" letter-spacing="1.17587399" fill="#96AEFF">
                    <tspan x="63.4216625" y="114.248992">40</tspan>
                    <tspan x="97.0934105" y="114.248992" letter-spacing="1.16251173">4</tspan>
                </text>
                <g id="编组-4" transform="translate(121.669144, 74.000000)">
                    <g id="医生2复制">
                        <path d="M6.301025,2.14476167 C6.301025,3.32331992 6.40860925,4.15748831 6.85242672,4.61492618 C7.29624418,5.07236406 7.82002388,5.23273657 8.10168292,5.23273657 C8.38334195,5.23273657 8.97377327,4.94016401 9.25906903,4.56906079 C9.54436479,4.19795758 9.79139092,2.4169593 9.54436479,2.0532741 C9.29733865,1.68958889 9.11637765,1.16076088 8.76077491,1.16076088 C8.40517217,1.16076088 7.8123192,1.16076088 7.33237296,1.16076088 C6.85242672,1.16076088 7.12284545,0.756609638 6.71193522,1.16076088 C6.301025,1.56491213 6.301025,0.966203422 6.301025,2.14476167 Z" id="路径-16" fill="#FFC6BB"></path>
                        <path d="M6.37354348,3.57348797 C6.45424216,3.21201436 6.47735104,3.29896612 6.44319213,2.88818466 C6.40903323,2.4774032 6.39059504,2.4342656 6.53975752,2.15719987 C6.68891999,1.88013415 6.86943437,1.7987532 7.08850308,1.7987532 C7.30757179,1.7987532 8.36498184,1.66806846 8.6174582,1.7987532 C8.86993456,1.92943794 9.36992946,1.93595894 9.42525686,2.3579333 C9.48058427,2.77990766 9.61436944,3.4762254 9.61436944,3.57348797 C9.61436944,3.67075054 9.84144877,3.45553995 9.84144877,3.23436797 C9.84144877,3.01319599 9.98021939,2.29761477 9.98021939,2.04513609 C9.98021939,1.79265741 9.98021939,1.07594905 9.69109675,0.707999771 C9.40197411,0.340050494 9.16283805,0.215563752 8.74947948,0.149143759 C8.33612091,0.0827237664 7.4451092,-0.047304968 6.83581229,0.0177093992 C6.22651537,0.0827237664 5.54281704,0.146752335 5.64167485,1.05272315 C5.68871598,1.483826 5.73984615,1.44291232 5.95101519,1.68414763 C6.1836219,1.94987291 6.04690777,2.35988813 6.085264,2.54156835 C6.15844145,2.88818466 6.27741598,3.14227433 6.37354348,3.57348797 Z" id="路径-28" fill="#303030"></path>
                        <path d="M4.35837782,6.26707076 C3.97861804,6.26707076 3.67156415,6.36655954 3.43721613,6.56553708 C2.13534778,7.67091266 0.383054176,12.7423312 0.142024276,14.2747409 C0.142024276,15.1489159 3.11121777,19.8337871 3.97360127,20.6450105 C4.17977749,20.1765663 4.30803634,20.0278074 4.35837782,20.198734 C3.179718,16.7480395 2.59838804,14.8575431 2.61438794,14.5272448 C2.63838778,14.0317973 4.30078463,10.6175746 4.35837782,10.6175746 C4.39677327,10.6175746 4.39677327,9.16740663 4.35837782,6.26707076 Z" id="路径-58" fill="#307CEF"></path>
                        <polygon id="路径-22" fill="#FFC6BB" points="10.3686387 42.5652174 10.4249449 43.2193095 10.966045 43.2193095 11.0375832 42.5652174"></polygon>
                        <polygon id="路径-22-copy-2" fill="#FFC6BB" transform="translate(2.341306, 42.892263) scale(-1, 1) translate(-2.341306, -42.892263) " points="2.0068333 42.5652174 2.06313942 43.2193095 2.6042396 43.2193095 2.67577774 42.5652174"></polygon>
                        <path d="M10.1564024,43.2857026 C10.1159592,43.5252909 10.0991678,43.7685219 10.1628377,43.7901453 C10.2265075,43.8117686 12.6870171,43.8213158 12.7744462,43.7901453 C12.8618752,43.7589747 12.6831963,43.4739089 12.297642,43.3987025 C11.9120876,43.3234961 11.1272034,43.2084847 10.9287293,43.2259413 C10.7302552,43.2433978 10.422978,43.2433978 10.3537309,43.2259413 C10.2844837,43.2084847 10.1968455,43.0461142 10.1564024,43.2857026 Z" id="路径-24" fill="#373E67"></path>
                        <path d="M0.0359204626,43.1731706 C-0.00452268101,43.4127589 -0.0213141316,43.6559899 0.042355727,43.6776133 C0.106025586,43.6992367 2.56653522,43.7087839 2.65396425,43.6776133 C2.74139328,43.6464427 2.5627144,43.3613769 2.17716004,43.2861705 C1.79160568,43.2109642 1.00672152,43.0959528 0.808247393,43.1134093 C0.609773269,43.1308658 0.302496114,43.1308658 0.233248957,43.1134093 C0.1640018,43.0959528 0.0763636063,42.9335823 0.0359204626,43.1731706 Z" id="路径-24-copy" fill="#373E67" transform="translate(1.337889, 43.370524) scale(-1, 1) translate(-1.337889, -43.370524) "></path>
                        <polygon id="路径-37" fill="#202F63" points="3.44415717 18.3391944 1.93018135 42.7304987 2.90118518 42.7304987 7.22964322 23.0045071 10.2211832 42.7304987 11.2373053 42.7304987 11.3864413 18.3391944"></polygon>
                        <path d="M6.95523414,3.48657275 C6.87094503,5.01366831 6.77845271,5.88746465 6.67775717,6.10796178 C6.4677705,6.18337316 6.40675845,6.46581284 6.5060241,6.63991358 C6.61601471,6.83282471 7.04939,7.19842439 7.80614997,7.73671262 C8.95659788,7.53103069 9.56979694,7.42818973 9.64574717,7.42818973 C9.7596725,7.42818973 9.39759036,6.64322016 9.39759036,6.5062012 C9.39759036,6.47432535 9.54065406,6.22647512 9.26372918,6.15329112 C9.12536876,5.4315103 8.89257977,3.91539239 8.89257977,3.48657275 C8.89257977,3.11402392 8.24679789,3.11402392 6.95523414,3.48657275 Z" id="路径-29" fill="#FFC6BB"></path>
                        <path d="" id="路径-31" stroke="#979797" stroke-width="0.708588"></path>
                        <path d="" id="路径-33" stroke="#979797" stroke-width="0.708588"></path>
                        <g id="路径-7" transform="translate(9.217767, 8.668478)"></g>
                        <path d="" id="路径-5" stroke="#979797" stroke-width="0.708588"></path>
                        <path d="" id="路径-8" stroke="#979797" stroke-width="0.78732"></path>
                        <path d="M6.31530895,3.042671 C6.10178986,2.79304016 5.78313253,2.79322478 5.78313253,3.1764988 C5.78313253,3.55977282 6.02407625,3.88380256 6.2523129,3.84799228 C6.48054955,3.81218201 6.52882803,3.29230185 6.31530895,3.042671 Z" id="路径-9" fill="#FFC6BB"></path>
                        <path d="M9.92976678,3.042671 C9.71624769,2.79304016 9.39759036,2.79322478 9.39759036,3.1764988 C9.39759036,3.55977282 9.63853408,3.88380256 9.86677073,3.84799228 C10.0950074,3.81218201 10.1432859,3.29230185 9.92976678,3.042671 Z" id="路径-9-copy" fill="#FFC6BB" transform="translate(9.732063, 3.360134) scale(-1, 1) translate(-9.732063, -3.360134) "></path>
                    </g>
                    <g id="编组-3" transform="translate(3.254785, 5.978261)">
                        <mask id="mask-10" fill="white">
                            <use xlink:href="#path-9"></use>
                        </mask>
                        <use id="形状结合" fill="#307CEF" xlink:href="#path-9"></use>
                        <path d="M8.9372754,8.29647999 C8.9372754,8.29647999 8.1268583,6.91617217 6.5060241,4.15555653 L6.5060241,3.10869565 C8.48770203,4.21061891 9.50499272,4.79777536 9.55789615,4.870165 C9.6372513,4.97874945 11.0059689,7.05182002 10.5672302,7.32454072 C10.1284914,7.59726142 8.9372754,8.29647999 8.9372754,8.29647999 Z" id="路径-7" fill="#2269D4" mask="url(#mask-10)"></path>
                        <ellipse id="椭圆形" fill="#FFC6BB" mask="url(#mask-10)" cx="4.69702231" cy="0.119565217" rx="1.44578313" ry="1"></ellipse>
                        <polygon id="路径-59" fill="#2269D4" mask="url(#mask-10)" points="1.35985107 3.58064241 -2.89768209e-14 8.03211911 -0.211482056 6.45944753"></polygon>
                    </g>
                    <path d="M18.3586215,7.39838797 C18.5560389,6.6730745 18.4914652,6.23562427 18.6631764,6.31147583 C18.8348876,6.38732739 18.7844831,6.52087132 18.8096854,6.68577667 C18.8348876,6.85068202 19.020376,5.37343012 19.5008985,5.27218222 C19.981421,5.17093433 20.1221615,5.77039451 19.8441529,6.22808559 C19.5661443,6.68577667 18.9561943,7.80955697 18.8096854,7.80955697 C18.6631764,7.80955697 18.161204,8.12370143 18.3586215,7.39838797 Z" id="路径-39" fill="#FFC6BB"></path>
                    <path d="M11.4289962,6.80818414 C12.1132569,7.34430851 13.1923596,9.05064853 14.6663041,11.9272042 C16.9492219,9.01460724 18.153831,7.55830875 18.2801313,7.55830875 C18.4064317,7.55830875 18.6584361,7.65558708 19.0361446,7.85014373 C16.6901823,12.5921498 15.312548,15.1443406 14.9032415,15.5067162 C14.493935,15.8690917 12.4177541,13.552429 8.6746988,8.55672799 C9.82663625,6.85490772 10.7447354,6.27205977 11.4289962,6.80818414 Z" id="路径-36" fill="#307CEF"></path>
                </g>
                <g id="长方体-copy-6" opacity="0.539999962" transform="translate(170.669144, 60.000000)">
                    <polygon id="Fill-1" fill="url(#linearGradient-11)" points="12.8602931 0 0.6 6.90020928 12.9398149 13.8 25.2 6.89979072"></polygon>
                    <polygon id="Fill-2" fill="url(#linearGradient-12)" points="12.4299825 14.0041351 12.3 63.3 25.0700175 58.8891512 25.2 6.9"></polygon>
                    <polygon id="Fill-3" fill="url(#linearGradient-13)" points="0 56.1963493 12.7705136 63.3 12.9 14.0036507 0.129262775 6.9"></polygon>
                </g>
                <g id="长方体-copy-7" opacity="0.539999962" transform="translate(118.269144, 14.000000)">
                    <polygon id="Fill-1" fill="url(#linearGradient-14)" points="8.82239888 0 0.3 4.80014558 8.87767622 9.6 17.4 4.79985442"></polygon>
                    <polygon id="Fill-2" fill="url(#linearGradient-15)" points="8.49068544 9.71243381 8.4 43.8 17.3093146 40.749945 17.4 4.8"></polygon>
                    <polygon id="Fill-3" fill="url(#linearGradient-16)" points="0 38.8879011 8.90966064 43.8 9 9.71209887 0.0901833312 4.8"></polygon>
                </g>
            </g>
        </g>
    </g>
</svg>